<svg width="27" height="27" viewBox="0 0 27 27" fill="none" xmlns="http://www.w3.org/2000/svg">
<path d="M26.5043 14.6918C27.1635 14.0326 27.1635 12.9621 26.5043 12.3029L19.7543 5.55293C19.0951 4.89375 18.0246 4.89375 17.3654 5.55293C16.7062 6.21211 16.7062 7.28262 17.3654 7.9418L21.2361 11.8125L10.125 11.8125C9.1916 11.8125 8.4375 12.5666 8.4375 13.5C8.4375 14.4334 9.1916 15.1875 10.125 15.1875L21.2361 15.1875L17.3654 19.0582C16.7062 19.7174 16.7062 20.7879 17.3654 21.4471C18.0246 22.1063 19.0951 22.1063 19.7543 21.4471L26.5043 14.6971V14.6918ZM8.4375 5.0625C9.3709 5.0625 10.125 4.3084 10.125 3.375C10.125 2.4416 9.3709 1.6875 8.4375 1.6875L5.0625 1.6875C2.26758 1.6875 0 3.95508 0 6.75L0 20.25C0 23.0449 2.26758 25.3125 5.0625 25.3125L8.4375 25.3125C9.3709 25.3125 10.125 24.5584 10.125 23.625C10.125 22.6916 9.3709 21.9375 8.4375 21.9375L5.0625 21.9375C4.1291 21.9375 3.375 21.1834 3.375 20.25L3.375 6.75C3.375 5.8166 4.1291 5.0625 5.0625 5.0625L8.4375 5.0625Z" fill="#1E1E1E"/>
</svg>
